# xmcd
#
# Track frame offsets: 
#        150
#        21618
#        38568
#        58105
#        73630
#        93655
#        113117
#        132317
#        153317
#        171954
#
# Disc length: 2517 seconds
#
# Revision: 0
# Processed by: cddbd v1.5.2PL0 Copyright (c) Steve Scherf et al.
# Submitted via: ExactAudioCopy v0.99pb4
#
DISCID=8a09d30a
DTITLE=นกน้อย อุไรพร - รถไฟสายน้ำตา
DYEAR=2008
DGENRE=Country
TTITLE0=รถไฟสายน้ำตา
TTITLE1=ผู้หญิงอกหัก
TTITLE2=แม่เหนื่อย
TTITLE3=เฒ่าบ่แม่นแนว
TTITLE4=บัณฑิตดอกหญ้า
TTITLE5=ชีวิตหรือละคร
TTITLE6=หญิงหม้ายมองจันทร์
TTITLE7=จะรอไหวมั้ย
TTITLE8=ต้านลมด้วยแรงรัก
TTITLE9=วันนี้ที่เมืองไทย
EXTD=
EXTT0=
EXTT1=
EXTT2=
EXTT3=
EXTT4=
EXTT5=
EXTT6=
EXTT7=
EXTT8=
EXTT9=
PLAYORDER=
